Coordinates

Units are S.I. units (second, meters, Newtons, ...)
If the header above contains a line with 'inDegrees', this indicates whether rotational values are in degrees (yes) or radians (no).

inDegrees=no
nColumns=22
nRows=29
DataType=double
version=3
OpenSimVersion=4.6-2026-03-31-d6972f9e6
endheader
time	/jointset/ground_pelvis/pelvis_tilt/value	/jointset/ground_pelvis/pelvis_list/value	/jointset/ground_pelvis/pelvis_rotation/value	/jointset/ground_pelvis/pelvis_tx/value	/jointset/ground_pelvis/pelvis_ty/value	/jointset/ground_pelvis/pelvis_tz/value	/jointset/hip_r/hip_flexion_r/value	/jointset/hip_r/hip_adduction_r/value	/jointset/hip_r/hip_rotation_r/value	/jointset/walker_knee_r/knee_angle_r/value	/jointset/patellofemoral_r/knee_angle_r_beta/value	/jointset/ankle_r/ankle_angle_r/value	/jointset/hip_l/hip_flexion_l/value	/jointset/hip_l/hip_adduction_l/value	/jointset/hip_l/hip_rotation_l/value	/jointset/walker_knee_l/knee_angle_l/value	/jointset/patellofemoral_l/knee_angle_l_beta/value	/jointset/ankle_l/ankle_angle_l/value	/jointset/back/lumbar_extension/value	/jointset/back/lumbar_bending/value	/jointset/back/lumbar_rotation/value
22.84	-0.5210024139967265	0.07901022401921717	0.004884162481455481	-2.42276375747107	0.7086155340508996	2.477256539946938	1.41057005782035	-0.2539900409117876	0.1063320314036795	1.406411529878526	1.406411529156999	0.5113166976441934	1.361649163741482	-0.1236187669771589	0.09022795890695029	1.431017759468361	1.431017759920747	0.4839239991636416	-0.2922558981300207	0.009483567528233362	-0.03668161771006118
22.845	-0.5142683566895689	0.07938537918271014	0.0035025970512689	-2.42106494781109	0.713165343584673	2.477446068976807	1.394215390675022	-0.2544567584469987	0.1022924401016094	1.393019518697306	1.393019518046158	0.5095004621516449	1.345536604844728	-0.1250042133579663	0.08600493998291647	1.418281234904308	1.418281235352863	0.4823430909654244	-0.2911976951169405	0.008443823357319476	-0.03620733436909613
22.85	-0.5073774839302725	0.07980358467466499	0.00209531214087306	-2.419329823134803	0.7177121946337074	2.4776391596342	1.377690603728647	-0.2549320714817351	0.09831078639223986	1.379603219583017	1.379603219001705	0.507602043051423	1.329203395325538	-0.1264037991647847	0.08164297526187804	1.405486653631232	1.405486654073619	0.4807062477134765	-0.2901817217797448	0.007322212332980338	-0.03574565715774527
22.855	-0.5003448951153195	0.0802655246140979	0.0006667089254327137	-2.417559662080239	0.7222533701831751	2.477835324715207	1.361013475025709	-0.2554172612040062	0.09439312538892887	1.366164959501193	1.366164958987883	0.505617272716201	1.312665184002593	-0.1278034953045934	0.07715518722935728	1.392631807849554	1.392631808282527	0.4790151694862916	-0.2891922407085047	0.00611698263016093	-0.03530155331945525
22.86	-0.4931863905797423	0.08077067888577798	-0.00077809804138509	-2.415755805752811	0.7267860896112679	2.478033949193142	1.344201983636984	-0.2559143279701965	0.09054302915114366	1.352706788082812	1.352706787634797	0.5035424939495776	1.29593910846645	-0.1291889931433829	0.07255671566345494	1.379714749903064	1.379714750322232	0.4772714822038196	-0.2882127698500769	0.004828368954160411	-0.03487996869451265
22.865	-0.485918246509234	0.08131732630151051	-0.002233298459811107	-2.41391964452324	0.7313075316827718	2.478234297522382	1.327274045585393	-0.2564259013612049	0.08676154881925909	1.339230461573784	1.339230461187892	0.5013746298865629	1.279043578750343	-0.1305458797165216	0.06786463338975357	1.366733866248701	1.366733866648496	0.4754766542878837	-0.287226372108465	0.003458589860666978	-0.03448577229266335
22.87	-0.478556942858311	0.08190256261390694	-0.003692428125842776	-2.412052603592634	0.7358148636795266	2.478435524818771	1.310247200650365	-0.2569551147972821	0.08304723341547332	1.325737420453262	1.325737420126229	0.4991112559350702	1.261997993391379	-0.1318598296757626	0.06309782857423619	1.35368794282311	1.353687943196982	0.4736319342211655	-0.2862160121161815	0.002011814466506078	-0.03412368539991526
22.875	-0.4711188700527449	0.08252233402887059	-0.005148432797553087	-2.410156128479987	0.7403052739248001	2.478636691613416	1.293138280596333	-0.2575054504516514	0.07939620211218873	1.312228759692478	1.312228759421283	0.4967506596593861	1.244822415358341	-0.1331168102967862	0.05827685150786463	1.34057621629012	1.340576216630981	0.4717383000555143	-0.285164946265799	0.0004940970556060346	-0.03379820042497849
22.88	-0.4636200162961928	0.08317148680937869	-0.006593754355090534	-2.408231670323297	0.7447760073420208	2.478836782109885	1.275963063352113	-0.2580805608715182	0.0758022630155706	1.298705195690307	1.298705195472467	0.4942918881814771	1.227537209019641	-0.1343032971023775	0.05342372337635603	1.327398410715339	1.327398411016227	0.4697964248968935	-0.2840571423022993	-0.001086720741514986	-0.03351348929659424
22.885	-0.4560756335482229	0.08384383321251006	-0.008020438434956832	-2.406280670854795	0.7492244040695673	2.479034725669683	1.258735913082672	-0.25868407401044	0.07225707472579419	1.285167034047893	1.285167033881712	0.4917347848872667	1.210162636108826	-0.1354064961940631	0.04856170635070341	1.314154760912827	1.314154761167732	0.467806664284828	-0.2828777299109722	-0.002721139068691932	-0.03327330145449118
22.89	-0.448499867461062	0.0845322343591936	-0.009420263217483928	-2.404304546755296	0.7536479430410583	2.47922942114687	1.241469388602072	-0.2593193861597023	0.06875035625007547	1.271614134414734	1.271614134299488	0.4890800255289368	1.192718393408409	-0.1364145678725421	0.04371503593487253	1.300846020424084	1.300846020628836	0.4657690755729456	-0.2816135021138855	-0.004398158646184872	-0.03308085328235331
22.895	-0.440905350813746	0.08522869973081296	-0.01078488600846213	-2.402304673686799	0.7580442906099998	2.479419763285227	1.224173818356335	-0.2599894473784808	0.06527015282307425	1.258045869887227	1.258045869823229	0.4863291596168758	1.175223092823042	-0.1373168445338917	0.03890861992294179	1.287473453947927	1.287473454101035	0.4636834733356972	-0.2802534688243815	-0.006105465856677077	-0.03293871354722843
22.9	-0.4333028032918085	0.08592450126285654	-0.0121059981131759	-2.400282371724711	0.7624113487641944	2.479604669746695	1.206856891785291	-0.260696547339212	0.06180315712681632	1.244461087240063	1.244461087228572	0.4834846433537481	1.157693736847219	-0.1381040341454901	0.03416771292736632	1.274038819058591	1.27403881916192	0.4615495065460759	-0.2787894055261222	-0.007829638734576748	-0.03284869370488824
22.905	-0.4257007019500698	0.08661029930348325	-0.0133754765893534	-2.39823889442741	0.7667472947753998	2.479783107210542	1.189523343423779	-0.2614421119586045	0.05833507456799793	1.230858079995777	1.230858080038745	0.4805498405720978	1.140145267782349	-0.1387684012991756	0.02951757669951989	1.260544344101533	1.2605443441607	0.4593667335713271	-0.2772163100766813	-0.009556368345295153	-0.03281175290455776
22.91	-0.418105081755822	0.0872762776129713	-0.01458552293760329	-2.396175423344845	0.7710506045862363	2.479954115258682	1.172174801953626	-0.2622265219256438	0.05485101306617245	1.21723459031385	1.217234590413573	0.4775289701275269	1.1225902635256	-0.1393039203931348	0.02498313476393743	1.246992710493293	1.246992710517708	0.4571346730198066	-0.2755326864340275	-0.01127069045364098	-0.03282792406641835
22.915	-0.4105195075931471	0.08791228496970428	-0.01572878109964763	-2.394093069026521	0.7753200544123885	2.480116827052853	1.154809855456474	-0.2630489634223981	0.05133587683597084	1.203587854900282	1.203587855059032	0.4744269850551494	1.105038831790782	-0.1397063973705456	0.02058862769546549	1.233387047564799	1.233387047567364	0.4548528159338823	-0.2737405985944444	-0.01295722274918342	-0.03289626341514213
22.92	-0.4029452275052065	0.08850798206874122	-0.01679843089690831	-2.391992878519154	0.7795546992458646	2.480270486127152	1.137424344852434	-0.2639073187993461	0.04777474947950165	1.189914700633188	1.189914700852863	0.4712493818549305	1.087498716345028	-0.1399735571331457	0.01635727289561321	1.219730943423298	1.219730943419805	0.4525205966418661	-0.2718454808544128	-0.01460040381346321	-0.03301482329885362
22.925	-0.3953814782718303	0.08905299379950531	-0.01778825806174943	-2.38987584807221	0.7837538322140399	2.480414459041893	1.120011848847402	-0.2647981015699266	0.04415325943361539	1.176211681418158	1.176211681699915	0.4680019544676471	1.06997558112771	-0.140105093609786	0.01231093111900708	1.206028467172095	1.206028467180424	0.450137332918507	-0.2698557419724086	-0.0161847317532504	-0.03318064720085658
22.93	-0.3878258849501605	0.0895370682521551	-0.01869270749465982	-2.387742938847775	0.7879169327323078	2.480548244226755	1.102564286638878	-0.2657164356707561	0.04045792817638229	1.162475235882626	1.162475236226525	0.4646905203055125	1.052473401229406	-0.1401026791276845	0.00846978511617787	1.192284191420023	1.192284191459223	0.4477021555048954	-0.2677822393673626	-0.01769500342856097	-0.03338978716814123
22.935	-0.3802748981294226	0.08995024359946169	-0.01950692911929577	-2.385595093557559	0.7920436108946657	2.480671477805275	1.085072567553975	-0.2666560749453726	0.03667650339916388	1.148701846491291	1.148701846895967	0.4613206474128186	1.034994892225482	-0.1399699311138224	0.004852042657735799	1.178503206263047	1.178503206352416	0.4452139454844842	-0.265637695718337	-0.01911655730794468	-0.03363734586934668
22.94	-0.3727242419557717	0.09028302139306926	-0.02022682204159043	-2.383433252868974	0.7961335512907746	2.480783937003011	1.067527253553032	-0.2676094592761531	0.03279827156901283	1.134888194572101	1.134888195034486	0.4578974018158071	1.017541946603554	-0.1397123374173636	0.001473677088485229	1.1646911238371	1.164691123995317	0.4426712871878452	-0.2634360909460917	-0.0204355202238583	-0.03391754435286384
22.945	-0.3651693597154752	0.09052654171194915	-0.02084907562307223	-2.381258370833768	0.8001864575946451	2.480885541025492	1.049919216024389	-0.2685678078025108	0.02881433759339286	1.121031311930486	1.121031312445582	0.4544251260941575	1.000116064252385	-0.1393371426564062	-0.001651788841946863	1.150854073194576	1.150854073438915	0.440072438488887	-0.2611920453582473	-0.02163905180646622	-0.03422381338806565
22.95	-0.3576058170662645	0.09067275441258962	-0.02137120361147028	-2.379071427806251	0.8042020031120906	2.480976348963368	1.032240232429456	-0.2695212514985638	0.02471786208179582	1.107128717215792	1.107128717776485	0.4509072659057536	0.9827187315014768	-0.1388531956077886	-0.004513455652339075	1.136998675929891	1.136998676275522	0.4374153282006456	-0.2589202465526096	-0.02271557652138463	-0.03454890527072566
22.955	-0.3500295993215818	0.09071458050022492	-0.02179157032991395	-2.376873438612173	0.8081797957828379	2.481056554710765	1.014483437911896	-0.2704590046426693	0.02050424954588382	1.09317851489026	1.09317851548721	0.4473462669954729	0.9653516739391642	-0.138270757885564	-0.007103175639130361	1.123131988040344	1.123131988499738	0.4346975978318668	-0.2566350045805353	-0.02365499427021616	-0.03488502262815771
22.96	-0.3424372738009746	0.09064605638801368	-0.02210940797488826	-2.374665454873587	0.8121193616679366	2.4811264792224	0.9966435898326401	-0.2713695696550947	0.01617127935447284	1.079179444405549	1.079179445027176	0.4437435496331274	0.9480169503817205	-0.1376012793953056	-0.00941563357463957	1.109261403022932	1.109261403605377	0.4319166935493196	-0.2543499749546176	-0.0244488617950413	-0.03522395900992637
22.965	-0.33482604929791	0.09046245355949482	-0.02232482054175523	-2.372448562458322	0.8160201431054493	2.48118656015057	0.9787171789486759	-0.2722409663523746	0.01171917306955103	1.065130883326684	1.065130883959276	0.4400995427255222	0.9307169292391367	-0.1368571498727402	-0.01144837378765105	1.095394524627813	1.095394525339027	0.4290699938137297	-0.2520780098397624	-0.02509053702294876	-0.03555724555418364
22.97	-0.3271937868702643	0.09016036965866413	-0.02243876990776656	-2.370223875795027	0.8198815047337784	2.481237338723993	0.9607024515877488	-0.2730609772642563	0.007150596169519301	1.051032817166635	1.051032817794595	0.4364137515379453	0.9134542144357954	-0.1360514355230879	-0.0132017710954753	1.081539022681205	1.081539023523054	0.4261549497225872	-0.2498310687115179	-0.02557528135579623	-0.03587629897326102
22.975	-0.3195389953463653	0.08973779187624073	-0.02245304366689339	-2.367992530119628	0.823702742856502	2.481279444096118	0.942599387046982	-0.2738174036757809	0.002470593440717455	1.036885791968766	1.03688579257504	0.4326848405774945	0.8962315620261961	-0.1351976082229512	-0.01467895027711642	1.067702482439117	1.06770248340946	0.42316921846009	-0.2476201460153228	-0.02590032060392895	-0.03617256704997512
22.98	-0.3118608156034836	0.0891941353781316	-0.02237020757416709	-2.365755671813732	0.82748309712395	2.481313575701166	0.924409640401858	-0.2744983282995272	-0.002313540823045008	1.022690861402212	1.02269086196891	0.4289107249850048	0.8790517926229232	-0.1343092729025068	-0.01588566063557704	1.053892252002058	1.053892253094731	0.4201107776641833	-0.2454552108564816	-0.02606486780524617	-0.03643766956049616
